<svg width="40" height="40" viewBox="0 0 40 40" fill="none" xmlns="http://www.w3.org/2000/svg">
<rect width="40" height="40" rx="8" fill="black"/>
<path d="M28.8653 29.6153V25.8653H25.1153V23.9903H28.8653V20.2403H30.74V23.9903H34.49V25.8653H30.74V29.6153H28.8653ZM10.2594 30.625C9.62792 30.625 9.09344 30.4062 8.65594 29.9688C8.21865 29.5312 8 28.9968 8 28.3653V11.6347C8 11.0032 8.21865 10.4688 8.65594 10.0313C9.09344 9.59375 9.62792 9.375 10.2594 9.375H26.99C27.6215 9.375 28.1559 9.59375 28.5934 10.0313C29.0309 10.4688 29.2497 11.0032 29.2497 11.6347V17.5H27.3747V14.6153H9.87469V28.3653C9.87469 28.4776 9.91083 28.5698 9.98313 28.6419C10.0552 28.714 10.1473 28.75 10.2594 28.75H26.1247V30.625H10.2594ZM9.87469 12.7403H27.3747V11.6347C27.3747 11.5224 27.3386 11.4302 27.2666 11.3581C27.1945 11.286 27.1023 11.25 26.99 11.25H10.2594C10.1473 11.25 10.0552 11.286 9.98313 11.3581C9.91083 11.4302 9.87469 11.5224 9.87469 11.6347V12.7403Z" fill="white"/>
</svg>
