<svg width="11" height="12" viewBox="0 0 11 12" fill="none" xmlns="http://www.w3.org/2000/svg">
<path d="M4.12302 2.29703C3.81679 2.29703 3.5544 2.18408 3.33585 1.95819C3.11729 1.7323 3.00801 1.46186 3.00801 1.14688C3.00801 0.831894 3.11729 0.562002 3.33585 0.337201C3.5544 0.1124 3.81679 0 4.12302 0C4.42923 0 4.69215 0.1124 4.91177 0.337201C5.13139 0.562002 5.2412 0.831894 5.2412 1.14688C5.2412 1.46186 5.13139 1.7323 4.91177 1.95819C4.69215 2.18408 4.42923 2.29703 4.12302 2.29703ZM0.55909 12L2.02641 4.28118L1.16604 4.65998V6.5117H0V3.84689L2.84591 2.65705C3.10303 2.54988 3.36194 2.5379 3.62265 2.62112C3.88334 2.70433 4.0857 2.87141 4.22973 3.12237L4.74619 4.00049C4.98842 4.40078 5.31239 4.72004 5.71808 4.95827C6.12376 5.19649 6.57348 5.3156 7.06723 5.3156V6.5117C6.4803 6.5117 5.93349 6.3902 5.42679 6.1472C4.92008 5.90421 4.49013 5.57084 4.13693 5.14708L3.83912 6.67545L4.93294 7.7907V12H3.7701V8.67749L2.69947 7.65529L1.7721 12H0.55909ZM8.00098 12V4.29341H5.95224V0.198951H11V4.29341H8.94807V12H8.00098ZM8.73232 3.6882L10.1359 2.24454L8.73232 0.800867L8.12365 1.42696L8.49599 1.80995H6.82596V2.68241H8.49599L8.12365 3.0654L8.73232 3.6882Z" fill="white"/>
</svg>
