<svg width="24" height="24" viewBox="0 0 24 24" fill="none" xmlns="http://www.w3.org/2000/svg">
<mask id="mask0_489_804" style="mask-type:alpha" maskUnits="userSpaceOnUse" x="0" y="0" width="24" height="24">
<rect width="24" height="24" fill="#D9D9D9"/>
</mask>
<g mask="url(#mask0_489_804)">
<path d="M5.30773 21.5001C4.8026 21.5001 4.37503 21.3251 4.02503 20.9751C3.67503 20.6251 3.50003 20.1975 3.50003 19.6924V6.30784C3.50003 5.80271 3.67503 5.37514 4.02503 5.02514C4.37503 4.67514 4.8026 4.50014 5.30773 4.50014H6.69236V2.38477H8.23078V4.50014H15.8077V2.38477H17.3077V4.50014H18.6923C19.1974 4.50014 19.625 4.67514 19.975 5.02514C20.325 5.37514 20.5 5.80271 20.5 6.30784V19.6924C20.5 20.1975 20.325 20.6251 19.975 20.9751C19.625 21.3251 19.1974 21.5001 18.6923 21.5001H5.30773ZM5.30773 20.0001H18.6923C18.7692 20.0001 18.8397 19.9681 18.9039 19.904C18.968 19.8398 19 19.7693 19 19.6924V10.3078H5.00001V19.6924C5.00001 19.7693 5.03206 19.8398 5.09616 19.904C5.16027 19.9681 5.2308 20.0001 5.30773 20.0001ZM5.00001 8.80787H19V6.30784C19 6.23091 18.968 6.16038 18.9039 6.09627C18.8397 6.03217 18.7692 6.00012 18.6923 6.00012H5.30773C5.2308 6.00012 5.16027 6.03217 5.09616 6.09627C5.03206 6.16038 5.00001 6.23091 5.00001 6.30784V8.80787ZM12 14.077C11.7551 14.077 11.5465 13.9908 11.3741 13.8184C11.2016 13.646 11.1154 13.4373 11.1154 13.1924C11.1154 12.9476 11.2016 12.7389 11.3741 12.5665C11.5465 12.3941 11.7551 12.3078 12 12.3078C12.2449 12.3078 12.4535 12.3941 12.626 12.5665C12.7984 12.7389 12.8846 12.9476 12.8846 13.1924C12.8846 13.4373 12.7984 13.646 12.626 13.8184C12.4535 13.9908 12.2449 14.077 12 14.077ZM8.00001 14.077C7.75514 14.077 7.54649 13.9908 7.37406 13.8184C7.20162 13.646 7.11541 13.4373 7.11541 13.1924C7.11541 12.9476 7.20162 12.7389 7.37406 12.5665C7.54649 12.3941 7.75514 12.3078 8.00001 12.3078C8.24487 12.3078 8.45352 12.3941 8.62596 12.5665C8.79839 12.7389 8.88461 12.9476 8.88461 13.1924C8.88461 13.4373 8.79839 13.646 8.62596 13.8184C8.45352 13.9908 8.24487 14.077 8.00001 14.077ZM16 14.077C15.7551 14.077 15.5465 13.9908 15.3741 13.8184C15.2016 13.646 15.1154 13.4373 15.1154 13.1924C15.1154 12.9476 15.2016 12.7389 15.3741 12.5665C15.5465 12.3941 15.7551 12.3078 16 12.3078C16.2449 12.3078 16.4535 12.3941 16.626 12.5665C16.7984 12.7389 16.8846 12.9476 16.8846 13.1924C16.8846 13.4373 16.7984 13.646 16.626 13.8184C16.4535 13.9908 16.2449 14.077 16 14.077ZM12 18.0001C11.7551 18.0001 11.5465 17.9139 11.3741 17.7415C11.2016 17.569 11.1154 17.3604 11.1154 17.1155C11.1154 16.8706 11.2016 16.662 11.3741 16.4896C11.5465 16.3171 11.7551 16.2309 12 16.2309C12.2449 16.2309 12.4535 16.3171 12.626 16.4896C12.7984 16.662 12.8846 16.8706 12.8846 17.1155C12.8846 17.3604 12.7984 17.569 12.626 17.7415C12.4535 17.9139 12.2449 18.0001 12 18.0001ZM8.00001 18.0001C7.75514 18.0001 7.54649 17.9139 7.37406 17.7415C7.20162 17.569 7.11541 17.3604 7.11541 17.1155C7.11541 16.8706 7.20162 16.662 7.37406 16.4896C7.54649 16.3171 7.75514 16.2309 8.00001 16.2309C8.24487 16.2309 8.45352 16.3171 8.62596 16.4896C8.79839 16.662 8.88461 16.8706 8.88461 17.1155C8.88461 17.3604 8.79839 17.569 8.62596 17.7415C8.45352 17.9139 8.24487 18.0001 8.00001 18.0001ZM16 18.0001C15.7551 18.0001 15.5465 17.9139 15.3741 17.7415C15.2016 17.569 15.1154 17.3604 15.1154 17.1155C15.1154 16.8706 15.2016 16.662 15.3741 16.4896C15.5465 16.3171 15.7551 16.2309 16 16.2309C16.2449 16.2309 16.4535 16.3171 16.626 16.4896C16.7984 16.662 16.8846 16.8706 16.8846 17.1155C16.8846 17.3604 16.7984 17.569 16.626 17.7415C16.4535 17.9139 16.2449 18.0001 16 18.0001Z" fill="black"/>
</g>
</svg>
