<svg width="40" height="40" viewBox="0 0 40 40" fill="none" xmlns="http://www.w3.org/2000/svg">
<rect width="40" height="40" rx="8" fill="#0085FF"/>
<path d="M25 26.25C26.7292 26.25 28.2031 25.6406 29.4219 24.4219C30.6406 23.2031 31.25 21.7292 31.25 20C31.25 18.2708 30.6406 16.7969 29.4219 15.5781C28.2031 14.3594 26.7292 13.75 25 13.75C24.3173 13.75 23.6682 13.857 23.0528 14.0709C22.4374 14.2849 21.8805 14.5833 21.3822 14.9662C21.9382 15.6602 22.3677 16.4355 22.6706 17.2922C22.9735 18.1486 23.125 19.0512 23.125 20C23.125 20.9487 22.9735 21.8514 22.6706 22.7078C22.3677 23.5645 21.9382 24.3398 21.3822 25.0337C21.8805 25.4167 22.4374 25.7151 23.0528 25.9291C23.6682 26.143 24.3173 26.25 25 26.25ZM20 23.75C20.3958 23.2292 20.7031 22.651 20.9219 22.0156C21.1406 21.3802 21.25 20.7083 21.25 20C21.25 19.2917 21.1406 18.6198 20.9219 17.9844C20.7031 17.349 20.3958 16.7708 20 16.25C19.6042 16.7708 19.2969 17.349 19.0781 17.9844C18.8594 18.6198 18.75 19.2917 18.75 20C18.75 20.7083 18.8594 21.3802 19.0781 22.0156C19.2969 22.651 19.6042 23.2292 20 23.75ZM15 26.25C15.6827 26.25 16.3318 26.143 16.9472 25.9291C17.5626 25.7151 18.1195 25.4167 18.6178 25.0337C18.0618 24.3398 17.6323 23.5645 17.3294 22.7078C17.0265 21.8514 16.875 20.9487 16.875 20C16.875 19.0512 17.0265 18.1486 17.3294 17.2922C17.6323 16.4355 18.0618 15.6602 18.6178 14.9662C18.1195 14.5833 17.5626 14.2849 16.9472 14.0709C16.3318 13.857 15.6827 13.75 15 13.75C13.2708 13.75 11.7969 14.3594 10.5781 15.5781C9.35938 16.7969 8.75 18.2708 8.75 20C8.75 21.7292 9.35938 23.2031 10.5781 24.4219C11.7969 25.6406 13.2708 26.25 15 26.25ZM15 28.125C12.7387 28.125 10.8193 27.3361 9.24156 25.7584C7.66385 24.1807 6.875 22.2612 6.875 20C6.875 17.7387 7.66385 15.8193 9.24156 14.2416C10.8193 12.6639 12.7387 11.875 15 11.875C15.9535 11.875 16.8542 12.0284 17.7019 12.3353C18.5496 12.6422 19.3156 13.0737 20 13.63C20.6844 13.0737 21.4504 12.6422 22.2981 12.3353C23.1458 12.0284 24.0465 11.875 25 11.875C27.2612 11.875 29.1807 12.6639 30.7584 14.2416C32.3361 15.8193 33.125 17.7387 33.125 20C33.125 22.2612 32.3361 24.1807 30.7584 25.7584C29.1807 27.3361 27.2612 28.125 25 28.125C24.0465 28.125 23.1458 27.9716 22.2981 27.6647C21.4504 27.3578 20.6844 26.9262 20 26.37C19.3156 26.9262 18.5496 27.3578 17.7019 27.6647C16.8542 27.9716 15.9535 28.125 15 28.125Z" fill="white"/>
</svg>
