<svg width="128" height="23" viewBox="0 0 128 23" fill="none" xmlns="http://www.w3.org/2000/svg">
<path fill-rule="evenodd" clip-rule="evenodd" d="M8.99817 0C7.8936 0 6.99817 0.895431 6.99817 2V4C6.99817 5.10457 6.10274 6 4.99817 6H1.99988C0.895308 6 -0.00012207 6.89543 -0.00012207 8V11C-0.00012207 12.1046 0.895308 13 1.99988 13H3.99817C5.10274 13 5.99817 13.8954 5.99817 15V20C5.99817 21.1046 6.8936 22 7.99817 22H8.9989C10.1035 22 10.9989 21.1046 10.9989 20V18C10.9989 17.4477 11.4466 17 11.9989 17H13.9989C14.5512 17 14.9989 17.4477 14.9989 18V20C14.9989 21.1046 15.8943 22 16.9989 22H17.9982C19.1027 22 19.9982 21.1046 19.9982 20V15C19.9982 13.8954 20.8936 13 21.9982 13C23.1027 13 23.9982 12.1046 23.9982 11V8C23.9982 6.89543 23.1027 6 21.9982 6H18.9982C17.8936 6 16.9982 6.89543 16.9982 8V10C16.9982 11.1046 16.1027 12 14.9982 12H8.99988C7.89531 12 6.99988 11.1046 6.99988 10V9C6.99988 7.89543 7.89531 7 8.99988 7H11.9982C13.1027 7 13.9982 6.10457 13.9982 5V2C13.9982 0.89543 13.1027 0 11.9982 0H8.99817Z" fill="black"/>
<path d="M43.0783 6.82C45.4383 6.82 47.1183 8.74 47.1183 11.84V19.06H44.5383V11.82C44.5383 9.86 43.5583 9.14 42.2783 9.14C41.0183 9.14 40.0383 10.08 40.0383 11.8V19.06H37.5383V11.82C37.5383 9.82 36.5583 9.12 35.2983 9.12C34.0383 9.12 33.0583 9.92 33.0583 11.8V19.06H30.4783V7.12H32.8783L32.9983 8.58C33.6183 7.56 34.6583 6.82 36.0783 6.82C37.5983 6.82 38.7983 7.6 39.4583 9C40.1383 7.74 41.4183 6.82 43.0783 6.82Z" fill="black"/>
<path d="M60.2152 12.54V14.02H51.7952C51.9352 16.06 53.2552 17.08 54.7552 17.08C56.0552 17.08 57.1952 16.5 57.6752 15.3L60.0152 16.02C59.3152 18.22 57.2152 19.36 54.7552 19.36C51.7952 19.36 49.2752 17.44 49.2752 13.68V12.48C49.2752 8.74 51.7752 6.82 54.7352 6.82C57.7352 6.82 60.2152 8.74 60.2152 12.54ZM51.8152 11.9H57.6752C57.6752 10.26 56.3952 9.08 54.7352 9.08C53.2752 9.08 52.0352 10.02 51.8152 11.9Z" fill="black"/>
<path d="M73.1058 12.54V14.02H64.6858C64.8258 16.06 66.1458 17.08 67.6458 17.08C68.9458 17.08 70.0858 16.5 70.5658 15.3L72.9058 16.02C72.2058 18.22 70.1058 19.36 67.6458 19.36C64.6858 19.36 62.1658 17.44 62.1658 13.68V12.48C62.1658 8.74 64.6658 6.82 67.6258 6.82C70.6258 6.82 73.1058 8.74 73.1058 12.54ZM64.7058 11.9H70.5658C70.5658 10.26 69.2858 9.08 67.6258 9.08C66.1658 9.08 64.9258 10.02 64.7058 11.9Z" fill="black"/>
<path d="M81.7411 16.64L82.3211 18.8C81.6011 19.18 80.5811 19.36 79.7211 19.36C77.6411 19.36 76.3211 18.26 76.3211 16.08V9.46H74.3411V7.12H76.3211V3.94H78.8811V7.12H81.8211V9.46H78.8811V15.7C78.8811 16.74 79.3411 17.02 80.1011 17.02C80.7211 17.02 81.2011 16.86 81.7411 16.64Z" fill="black"/>
<path d="M92.0553 8.58L92.1753 7.12H94.5753V17.42C94.5753 21.06 91.9953 22.76 88.9753 22.76C86.6553 22.76 84.6153 21.98 83.7753 20.3L86.4153 19.28C86.8353 20.16 87.8353 20.62 88.9753 20.62C90.8953 20.62 91.9953 19.46 91.9953 17.3V16.64C91.0753 17.72 89.7153 18.32 88.2753 18.32C85.8953 18.32 83.4353 16.32 83.4353 13.12V12.04C83.4353 8.8 85.8953 6.82 88.2753 6.82C89.7553 6.82 91.1353 7.44 92.0553 8.58ZM89.0153 16.08C90.6553 16.08 91.9953 14.98 91.9953 13.02V12.1C91.9953 10.16 90.6553 9.06 89.0153 9.06C87.3553 9.06 86.0153 10.16 86.0153 12.1V13.02C86.0153 14.98 87.3553 16.08 89.0153 16.08Z" fill="black"/>
<path d="M102.491 19.36C99.5114 19.36 96.9314 17.48 96.9314 13.82V12.32C96.9314 8.68 99.5114 6.82 102.491 6.82C105.471 6.82 108.071 8.68 108.071 12.32V13.82C108.071 17.48 105.471 19.36 102.491 19.36ZM102.491 17.02C104.091 17.02 105.491 15.94 105.491 13.76V12.4C105.491 10.22 104.091 9.16 102.491 9.16C100.891 9.16 99.5114 10.22 99.5114 12.4V13.76C99.5114 15.94 100.891 17.02 102.491 17.02Z" fill="black"/>
<path d="M123.137 6.82C125.497 6.82 127.177 8.74 127.177 11.84V19.06H124.597V11.82C124.597 9.86 123.617 9.14 122.337 9.14C121.077 9.14 120.097 10.08 120.097 11.8V19.06H117.597V11.82C117.597 9.82 116.617 9.12 115.357 9.12C114.097 9.12 113.117 9.92 113.117 11.8V19.06H110.537V7.12H112.937L113.057 8.58C113.677 7.56 114.717 6.82 116.137 6.82C117.657 6.82 118.857 7.6 119.517 9C120.197 7.74 121.477 6.82 123.137 6.82Z" fill="black"/>
</svg>
