<svg width="98" height="20" viewBox="0 0 98 20" fill="none" xmlns="http://www.w3.org/2000/svg">
<path d="M13.0783 3.82C15.4383 3.82 17.1183 5.74 17.1183 8.84V16.06H14.5383V8.82C14.5383 6.86 13.5583 6.14 12.2783 6.14C11.0183 6.14 10.0383 7.08 10.0383 8.8V8.84V16.06H7.53829V8.82C7.53829 6.82 6.55829 6.12 5.29829 6.12C4.03829 6.12 3.05829 6.92 3.05829 8.8V16.06H0.478291V4.12H2.87829L2.99829 5.58C3.61829 4.56 4.65829 3.82 6.07829 3.82C7.59829 3.82 8.79829 4.6 9.45829 6C10.1383 4.74 11.4183 3.82 13.0783 3.82ZM30.2152 9.54V11.02H21.7952C21.9352 13.06 23.2552 14.08 24.7552 14.08C26.0552 14.08 27.1952 13.5 27.6752 12.3L30.0152 13.02C29.3152 15.22 27.2152 16.36 24.7552 16.36C21.7952 16.36 19.2752 14.44 19.2752 10.68V9.48C19.2752 5.74 21.7752 3.82 24.7352 3.82C27.7352 3.82 30.2152 5.74 30.2152 9.54ZM21.8152 8.9H27.6752C27.6752 7.26 26.3952 6.08 24.7352 6.08C23.2752 6.08 22.0352 7.02 21.8152 8.9ZM43.1058 9.54V11.02H34.6858C34.8258 13.06 36.1458 14.08 37.6458 14.08C38.9458 14.08 40.0858 13.5 40.5658 12.3L42.9058 13.02C42.2058 15.22 40.1058 16.36 37.6458 16.36C34.6858 16.36 32.1658 14.44 32.1658 10.68V9.48C32.1658 5.74 34.6658 3.82 37.6258 3.82C40.6258 3.82 43.1058 5.74 43.1058 9.54ZM34.7058 8.9H40.5658C40.5658 7.26 39.2858 6.08 37.6258 6.08C36.1658 6.08 34.9258 7.02 34.7058 8.9ZM51.7411 13.64L52.3211 15.8C51.6011 16.18 50.5811 16.36 49.7211 16.36C47.6411 16.36 46.3211 15.26 46.3211 13.08V6.46H44.3411V4.12H46.3211V0.939999H48.8811V4.12H51.8211V6.46H48.8811V12.7C48.8811 13.74 49.3411 14.02 50.1011 14.02C50.7211 14.02 51.2011 13.86 51.7411 13.64ZM62.0553 5.58L62.1753 4.12H64.5753V14.42C64.5753 18.06 61.9953 19.76 58.9753 19.76C56.6553 19.76 54.6153 18.98 53.7753 17.3L56.4153 16.28C56.8353 17.16 57.8353 17.62 58.9753 17.62C60.8953 17.62 61.9953 16.46 61.9953 14.3V13.64C61.0753 14.72 59.7153 15.32 58.2753 15.32C55.8953 15.32 53.4353 13.32 53.4353 10.12V9.04C53.4353 5.8 55.8953 3.82 58.2753 3.82C59.7553 3.82 61.1353 4.44 62.0553 5.58ZM59.0153 13.08C60.6553 13.08 61.9953 11.98 61.9953 10.02V9.1C61.9953 7.16 60.6553 6.06 59.0153 6.06C57.3553 6.06 56.0153 7.16 56.0153 9.1V10.02C56.0153 11.98 57.3553 13.08 59.0153 13.08ZM72.4914 16.36C69.5114 16.36 66.9314 14.48 66.9314 10.82V9.32C66.9314 5.68 69.5114 3.82 72.4914 3.82C75.4714 3.82 78.0714 5.68 78.0714 9.32V10.82C78.0714 14.48 75.4714 16.36 72.4914 16.36ZM72.4914 14.02C74.0914 14.02 75.4914 12.94 75.4914 10.76V9.4C75.4914 7.22 74.0914 6.16 72.4914 6.16C70.8914 6.16 69.5114 7.22 69.5114 9.4V10.76C69.5114 12.94 70.8914 14.02 72.4914 14.02ZM93.1369 3.82C95.4969 3.82 97.1769 5.74 97.1769 8.84V16.06H94.5969V8.82C94.5969 6.86 93.6169 6.14 92.3369 6.14C91.0769 6.14 90.0969 7.08 90.0969 8.8V8.84V16.06H87.5969V8.82C87.5969 6.82 86.6169 6.12 85.3569 6.12C84.0969 6.12 83.1169 6.92 83.1169 8.8V16.06H80.5369V4.12H82.9369L83.0569 5.58C83.6769 4.56 84.7169 3.82 86.1369 3.82C87.6569 3.82 88.8569 4.6 89.5169 6C90.1969 4.74 91.4769 3.82 93.1369 3.82Z" fill="black"/>
</svg>
