<svg width="16" height="16" viewBox="0 0 16 16" fill="none" xmlns="http://www.w3.org/2000/svg">
<path d="M12.6084 16C11.8746 16 11.2511 15.7438 10.7378 15.2314C10.2246 14.7191 9.96798 14.0969 9.96798 13.365C9.96798 13.2687 9.97438 13.1689 9.98719 13.0657C9.99999 12.9625 10.0192 12.8654 10.0448 12.7743L5.16113 9.93524C4.92178 10.1557 4.65014 10.3275 4.3462 10.4505C4.04228 10.5735 3.72388 10.635 3.39101 10.635C2.6574 10.635 2.03383 10.3788 1.5203 9.86628C1.00677 9.3538 0.75 8.7315 0.75 7.99937C0.75 7.26724 1.00677 6.64515 1.5203 6.13308C2.03383 5.62101 2.6574 5.36497 3.39101 5.36497C3.72388 5.36497 4.04228 5.42649 4.3462 5.54951C4.65014 5.67252 4.92178 5.84427 5.16113 6.06476L10.0448 3.22567C10.0192 3.13459 9.99999 3.03746 9.98719 2.93428C9.97438 2.83109 9.96798 2.73134 9.96798 2.63503C9.96798 1.90308 10.2248 1.28092 10.7385 0.768552C11.2521 0.256184 11.8758 0 12.6096 0C13.3434 0 13.9669 0.256248 14.4801 0.768744C14.9934 1.28123 15.25 1.90353 15.25 2.63566C15.25 3.36779 14.9932 3.98988 14.4797 4.50194C13.9662 5.01402 13.3426 5.27005 12.609 5.27005C12.2761 5.27005 11.9577 5.21215 11.6538 5.09634C11.3499 4.98055 11.0782 4.81241 10.8389 4.59192L5.9552 7.40936C5.98081 7.50043 6.00001 7.59756 6.01281 7.70075C6.02562 7.80394 6.03202 7.90369 6.03202 8C6.03202 8.09631 6.02562 8.19606 6.01281 8.29925C6.00001 8.40244 5.98081 8.49957 5.9552 8.59064L10.8389 11.4081C11.0782 11.1876 11.3499 11.0195 11.6538 10.9037C11.9577 10.7879 12.2761 10.7299 12.609 10.7299C13.3426 10.7299 13.9662 10.9862 14.4797 11.4987C14.9932 12.0112 15.25 12.6335 15.25 13.3656C15.25 14.0977 14.9932 14.7198 14.4795 15.2319C13.9659 15.744 13.3421 16 12.6084 16ZM12.609 3.40145C12.8266 3.40145 13.0091 3.328 13.1563 3.1811C13.3035 3.03421 13.3772 2.85218 13.3772 2.63503C13.3772 2.41787 13.3035 2.23585 13.1563 2.08895C13.0091 1.94205 12.8266 1.8686 12.609 1.8686C12.3913 1.8686 12.2089 1.94205 12.0617 2.08895C11.9144 2.23585 11.8408 2.41787 11.8408 2.63503C11.8408 2.85218 11.9144 3.03421 12.0617 3.1811C12.2089 3.328 12.3913 3.40145 12.609 3.40145ZM3.39101 8.76643C3.60866 8.76643 3.7911 8.69298 3.93833 8.54608C4.08556 8.39918 4.15917 8.21715 4.15917 8C4.15917 7.78285 4.08556 7.60082 3.93833 7.45392C3.7911 7.30702 3.60866 7.23358 3.39101 7.23358C3.17336 7.23358 2.99092 7.30702 2.84369 7.45392C2.69646 7.60082 2.62284 7.78285 2.62284 8C2.62284 8.21715 2.69646 8.39918 2.84369 8.54608C2.99092 8.69298 3.17336 8.76643 3.39101 8.76643ZM12.609 14.1314C12.8266 14.1314 13.0091 14.058 13.1563 13.9111C13.3035 13.7642 13.3772 13.5821 13.3772 13.365C13.3772 13.1478 13.3035 12.9658 13.1563 12.8189C13.0091 12.672 12.8266 12.5985 12.609 12.5985C12.3913 12.5985 12.2089 12.672 12.0617 12.8189C11.9144 12.9658 11.8408 13.1478 11.8408 13.365C11.8408 13.5821 11.9144 13.7642 12.0617 13.9111C12.2089 14.058 12.3913 14.1314 12.609 14.1314Z" fill="#1C1B1F"/>
</svg>
